PathFileType	4	(X/Y/Z)	F:\MotionCapture\20160217\3\Generated_files\EMG_Fprce_test02-Dynamic.trc
DataRate	CameraRate	NumFrames	NumMarkers	Units	OrigDataRate	OrigDataStartFrame	OrigNumFrames
120.00	120.00	       9	39	mm	120.00	440	       703
Frame#	Time	Top.Head			Front.Head			Rear.Head			R.Shoulder			R.Offset			R.Elbow			R.Wrist			L.Shoulder			L.Elbow			L.Wrist			R.ASIS			L.ASIS			V.Sacral			R.Thigh			R.Knee			R.Shank			R.Ankle			R.Heel			R.Toe			L.Thigh			L.Knee			L.Shank			L.Ankle			L.Heel			L.Toe			R1			R2			R3			R4			R5			R6			R7			L1			L2			L3			L4			L5			L6			L7			V_Mid_ASIS			V_Pelvis_Origin			V_R.Hip_JC			V_L.Hip_JC			V_R.Knee_JC			V_L.Knee_JC			V_R.Ankle_JC			V_L.Ankle_JC			V_Mid_Hip			V_Mid_Shoulder			V_R.Hand			V_L.Hand			V_R.Toe_Offset_Static			V_L.Toe_Offset_Static			V_R.Toe_Offset			V_L.Toe_Offset			
		X1	Y1	Z1	X2	Y2	Z2	X3	Y3	Z3	X4	Y4	Z4	X5	Y5	Z5	X6	Y6	Z6	X7	Y7	Z7	X8	Y8	Z8	X9	Y9	Z9	X10	Y10	Z10	X11	Y11	Z11	X12	Y12	Z12	X13	Y13	Z13	X14	Y14	Z14	X15	Y15	Z15	X16	Y16	Z16	X17	Y17	Z17	X18	Y18	Z18	X19	Y19	Z19	X20	Y20	Z20	X21	Y21	Z21	X22	Y22	Z22	X23	Y23	Z23	X24	Y24	Z24	X25	Y25	Z25	X26	Y26	Z26	X27	Y27	Z27	X28	Y28	Z28	X29	Y29	Z29	X30	Y30	Z30	X31	Y31	Z31	X32	Y32	Z32	X33	Y33	Z33	X34	Y34	Z34	X35	Y35	Z35	X36	Y36	Z36	X37	Y37	Z37	X38	Y38	Z38	X39	Y39	Z39	

440	3.658	-980.29053	180.82629	1684.74084	-1100.91553	177.52260	1615.98035	-880.61755	175.42339	1602.38904				-834.74347	90.58920	1228.59131	-1357.64404	-78.01018	1034.10645	-1116.87659	-143.38977	1097.15576	-994.01208	-29.38371	1386.58777				-946.59528	373.81702	1367.06763	-1050.06580	287.40326	909.86108	-1040.29944	0.63458	893.21844	-821.79510	158.33400	895.54364	-1196.36206	248.58386	597.85699	-1181.79333	287.81244	471.17258	-1216.88342	212.91975	238.54802	-1194.24353	285.53311	69.17218	-1127.57019	221.93629	40.41124	-1336.05310	270.94931	43.34867	-1018.19214	5.06087	558.25153	-863.21362	-43.63422	432.20520	-785.37396	25.60159	305.01785	-533.63068	-20.56109	182.68597	-496.06607	40.80728	226.82262	-575.66003	-6.12100	47.50987	-1378.78320	254.50151	39.97248	-1344.50183	233.93449	46.00523	-1247.92737	194.60780	53.35505	-1174.07324	190.75159	38.37754	-1157.89258	265.61740	39.96659	-1231.51343	294.44202	36.94089	-1295.62573	311.13965	37.78940	-602.71741	20.13211	29.56761	-587.54224	33.48890	46.67369	-565.40631	66.56730	126.87263	-523.18915	70.78727	195.60048	-500.31735	-0.67183	199.70956	-522.33459	-30.94817	124.92248	-547.45367	-36.20468	67.29317																																																	-842.49792	449.63098	1057.33923	-852.38519	455.48578	793.16016	4001.52515	-1663.72388	686.57495	
441	3.667	-993.18768	183.31529	1686.80603	-1114.45337	179.84778	1618.56482	-893.98505	177.71173	1604.51904				-848.50885	92.80775	1230.69983	-1364.97839	-78.52318	1028.71545	-1125.10303	-142.37749	1096.75806	-1006.96466	-27.49264	1389.00623				-961.22467	376.03012	1369.15503	-1063.03833	290.50409	912.79437	-1054.51172	3.74780	894.56335	-834.99146	159.76170	897.23102	-1207.08350	251.35106	596.49829	-1190.92249	289.95105	471.14603	-1220.92542	213.69580	237.79405	-1194.80627	285.43997	69.39149	-1127.52307	222.24321	40.63115	-1337.05347	270.43878	42.85241	-1039.10706	5.64084	560.00452	-888.20728	-42.75194	430.28201	-806.10303	26.28640	305.28580	-551.80273	-19.77264	191.42247	-517.69562	41.50173	239.21927	-583.18695	-7.60920	52.95433	-1380.19214	252.93147	38.73623	-1345.40222	232.92308	45.30314	-1248.16516	194.41537	52.91993	-1174.23059	190.65515	38.33680	-1157.55713	266.10715	40.67318	-1231.59314	294.77750	36.38204	-1296.46643	310.45459	37.89831	-609.73126	18.32222	29.93725	-595.74786	31.26298	51.31989	-580.62567	65.64439	135.04614	-542.47150	71.14484	205.37762	-519.40582	0.18198	212.35835	-535.36865	-30.95258	137.02702	-556.60516	-37.61304	77.92578																																																	-860.68896	452.14465	1057.94312	-873.71844	457.49240	793.94244	
442	3.675	-1007.12585	185.29016	1689.59485	-1127.36670	181.82977	1621.19141	-907.51086	180.68285	1607.00500				-860.50055	94.78420	1233.32617	-1371.38135	-79.11208	1022.48779	-1132.67285	-141.07890	1096.85059	-1020.63226	-25.19625	1391.31641				-975.03076	378.17975	1371.43347	-1076.31934	293.39212	915.52002	-1068.53564	6.87968	896.62439	-847.74786	160.71317	899.90198	-1216.75940	253.30801	595.55383	-1198.21790	291.54486	471.01495	-1224.72046	214.25771	237.61284	-1195.00122	285.46573	69.33669	-1127.55493	222.12175	40.50626	-1337.41565	270.54987	42.19711	-1060.04968	6.78491	562.28113	-912.84534	-41.20943	428.44302	-828.81104	26.65817	306.75815	-570.79248	-18.88745	200.81006	-542.04773	43.22062	251.34062	-592.54950	-9.18621	59.25477	-1380.62329	253.12082	37.75363	-1345.69604	233.06691	44.97188	-1248.24939	194.40497	52.49104	-1174.35657	190.57664	38.25619	-1158.05688	265.54272	40.10193	-1231.56079	294.89658	36.23502	-1296.93774	310.49106	37.71473	-615.95154	15.62737	30.06704	-605.84552	28.83407	55.40281	-597.80164	65.00003	142.05304	-563.41052	72.52350	214.89685	-539.24658	1.84508	224.28279	-550.65125	-30.31579	149.29509	-568.37933	-38.84724	88.92075																																																	-878.17944	454.66855	1058.93457	-895.60162	459.43979	795.19507	
443	3.683	-1019.62421	187.71584	1692.48584	-1140.95496	183.78793	1624.37634	-921.11273	182.86423	1609.32654				-874.21222	96.59206	1236.50415	-1376.98450	-79.84167	1016.10565	-1139.56311	-139.97650	1096.79224	-1033.75989	-23.68632	1393.86096				-989.36975	380.20981	1374.17419	-1088.88391	295.89413	917.89520	-1082.27600	9.33939	898.71484	-860.83643	161.72595	901.78406	-1226.10474	254.72739	595.20789	-1203.83325	293.13742	470.91049	-1227.46033	215.24966	237.40582	-1194.81812	285.52374	69.17823	-1127.53479	222.01662	40.64056	-1337.32056	271.46664	41.89764	-1080.83105	8.81905	565.12457	-939.05505	-40.01477	427.46622	-852.03302	27.84493	308.55463	-591.60168	-17.92289	210.60922	-566.02332	46.78353	260.92252	-604.23010	-11.81786	67.22141	-1383.75183	253.85829	40.74469	-1346.28394	233.46165	45.87710	-1248.15613	194.62314	52.48251	-1174.26990	190.67818	38.27365	-1158.10669	265.53174	39.93242	-1231.47742	295.01852	36.38548	-1296.40295	311.64597	37.03335	-623.42279	12.34866	30.08941	-617.31104	26.03488	59.85631	-616.38342	65.09661	147.97995	-586.39111	75.04169	223.30807	-561.83765	5.47502	235.92946	-568.42303	-28.97123	160.95863	-582.57880	-39.50497	99.82917																																																	-896.18951	457.46918	1060.37427	-917.96259	461.22244	796.85413	
444	3.692	-1032.96643	189.95036	1695.48523	-1153.70215	185.71132	1627.61829	-933.49286	184.89482	1612.24719				-888.41809	99.26547	1239.44702	-1382.01892	-80.91941	1009.26160	-1146.21692	-138.77882	1097.17358	-1046.96924	-22.28628	1396.81287				-1003.75220	381.99002	1376.93762	-1101.26355	298.22287	920.35608	-1095.81250	11.77345	901.26990	-873.80792	163.08926	904.27191	-1234.00073	256.64032	595.14520	-1209.75476	295.38269	470.97232	-1230.23462	216.10715	237.19868	-1194.34387	285.95251	69.06073	-1127.21155	222.08919	40.47836	-1337.28040	271.49533	41.71050	-1101.40942	12.27157	568.52069	-965.01904	-38.88111	427.79495	-875.65143	29.80826	310.68628	-613.87946	-16.04843	219.64493	-591.94452	50.68533	268.94635	-618.55029	-14.75265	75.66401	-1383.71851	254.08412	40.52437	-1346.16370	233.52814	45.83823	-1247.93970	194.86543	52.63414	-1174.11243	190.84256	38.27819	-1157.84998	265.62683	39.90034	-1231.28870	295.10800	36.30843	-1296.32935	312.16702	36.81173	-634.08936	4.62863	35.23211	-629.91180	21.19513	64.63077	-635.64124	66.18780	153.22644	-610.87659	77.65461	229.69781	-585.77954	8.41996	244.90286	-587.79968	-27.04406	171.47414	-598.55066	-40.29025	110.63218																																																	-1354.85303	339.23615	4.87654	-914.76813	460.37076	1061.47070	-940.58710	463.38416	798.80835	
445	3.700	-1045.47314	191.96967	1698.21497	-1166.94849	187.34413	1630.96277	-946.95068	187.08932	1615.10376				-901.14410	100.66108	1242.87354	-1386.34167	-82.20269	1002.33752	-1152.64355	-137.60629	1097.65906	-1059.46362	-20.59154	1399.44373				-1017.83099	383.78003	1379.85071	-1113.71631	300.65527	922.95361	-1109.50781	13.40461	903.89838	-886.77386	164.19814	907.25824	-1241.43799	257.96588	594.79596	-1215.09863	296.17606	470.97055	-1232.12952	217.00531	236.98235	-1194.55127	286.01556	69.33903	-1126.98572	222.08302	40.48489	-1337.03809	271.82047	41.62411	-1122.01013	16.22982	572.20728	-990.28259	-37.05630	428.46939	-899.92151	31.97913	313.44418	-636.30170	-13.35703	227.77965	-617.86877	55.69414	275.02255	-636.40753	-17.65796	85.31039	-1383.62158	254.11472	40.40802	-1345.96729	233.67517	45.87646	-1247.82617	195.08000	52.79681	-1174.05310	190.96678	38.51434	-1157.68127	265.65710	39.84150	-1231.17322	295.29816	36.21602	-1295.78113	312.72467	36.45255	-648.70880	-4.36050	43.98010	-647.88721	16.51513	71.30019	-656.39618	66.75222	156.87856	-635.35425	80.54720	234.52649	-610.42499	12.92227	253.01250	-609.49713	-25.40361	181.19980	-617.97058	-41.09793	120.42954																																																	-932.49750	462.63480	1063.06750	3751.91992	-1539.53113	-419.50095	-964.07196	465.27844	801.18848	
446	3.708	-1058.35596	194.13895	1701.53345	-1180.04956	188.94603	1634.46985	-960.12915	188.81743	1618.78308				-913.63892	102.74027	1246.68115	-1389.68152	-83.41060	995.26788	-1158.70984	-136.31819	1098.28516	-1072.13306	-19.43357	1402.90491				-1031.99084	385.56903	1383.14722	-1126.11365	302.82059	925.64642	-1122.42993	15.54197	906.98071	-899.43011	165.37025	910.73608	-1248.31140	259.06897	594.43372	-1219.42627	297.68854	470.99048	-1234.33105	218.33293	236.92006	-1193.94824	286.35825	69.04417	-1126.60706	222.09476	40.49446	-1336.80371	272.14001	41.59714	-1142.58203	20.40120	576.66034	-1016.20880	-35.65043	430.29019	-924.32605	34.19899	316.64127	-659.97986	-10.65015	235.05183	-642.20111	60.58154	279.65921	-659.64331	-20.86212	92.86298	-1383.46399	254.37317	40.36678	-1345.70959	234.02876	45.97179	-1247.55066	195.37552	52.88807	-1173.90051	191.18239	38.76334	-1157.44775	265.60376	39.76105	-1230.84131	295.64355	36.03740	-1295.91565	312.75375	36.47943	-670.36407	-6.23302	49.18340	-669.70862	13.73882	76.52717	-679.53967	67.40378	160.48956	-659.42841	83.35023	238.19731	-634.20728	17.20710	259.51172	-632.91504	-23.59472	189.35860	-639.18573	-41.61940	129.68605																																																	3825.17700	-1571.60400	-102.31391	-951.26746	465.58920	1065.40295	-987.74127	467.23486	804.02380	
447	3.717	-1071.46484	195.85443	1705.41675	-1192.65955	190.75867	1637.78418	-972.45288	190.89374	1622.66040				-926.84735	105.23860	1249.82056	-1392.57361	-85.13165	987.83795	-1164.26099	-134.98064	1099.15039	-1084.39307	-18.63264	1406.43457				-1046.01807	386.96170	1386.66516	-1138.10681	304.77502	928.52185	-1135.19995	17.01887	910.45428	-912.07538	166.71394	914.39569	-1255.04321	259.96475	593.85193	-1223.16760	299.53961	470.92233	-1236.06897	219.61116	236.58771	-1192.61377	286.74118	69.43251	-1126.34851	222.12080	40.54005	-1336.76587	272.30154	41.70713	-1162.92773	24.10889	581.40259	-1041.80188	-34.06905	433.18881	-947.95135	37.52698	319.36624	-684.26617	-7.75325	240.18951	-666.05420	64.23963	283.20328	-683.79724	-21.43333	97.39941	-1383.13904	254.66069	40.16894	-1345.38538	234.34650	46.08775	-1247.27185	195.61678	53.20218	-1173.84558	191.46045	39.05382	-1157.46240	265.66589	39.63588	-1229.95862	295.43973	35.42124	-1295.73511	313.14636	36.40281	-695.02936	-7.37564	53.39163	-694.35126	12.72344	80.81708	-704.73230	68.34654	164.10637	-682.82861	86.61312	241.29837	-657.85315	20.61272	263.84439	-657.76990	-22.03768	195.32019	-664.55090	-41.87173	136.19475																																																	-969.76086	468.24060	1067.73145	3825.77246	-1575.13513	-94.09683	-1011.49335	469.42331	807.42291	-1836.56860	571.34344	759.35565	-1269.28894	239.89398	507.96304	
448	3.725	-1084.30164	197.40633	1709.13684	-1205.61511	192.17050	1641.34766	-984.91156	192.32324	1625.95813				-939.23090	106.46268	1253.57922	-1394.73499	-86.70771	980.50769	-1169.45789	-133.77019	1100.48804	-1096.21704	-17.82350	1409.89417				-1060.09949	388.38028	1390.06702	-1150.00854	306.34937	931.35779	-1148.33765	18.55156	914.10089	-923.80585	167.41960	918.88129	-1261.10364	260.88788	593.70587	-1225.76953	300.81152	470.17224	-1237.83447	221.22185	236.32420	-1193.29761	286.47321	68.46205	-1126.26025	222.15884	40.58686	-1336.76306	272.43314	41.76680	-1183.31567	28.18832	586.52649	-1067.12500	-32.45424	436.68155	-974.04456	39.54077	323.52490	-709.20300	-5.25044	243.59700	-689.04010	67.30420	285.35239	-711.24646	-21.11169	100.98827	-1383.00806	254.90431	40.11967	-1345.00928	234.73581	46.26683	-1247.25635	196.00108	53.40804	-1173.72302	191.62234	39.29306	-1156.83313	266.02451	39.51548	-1229.74243	295.68854	35.28533	-1295.43079	313.67734	36.20336	-723.05682	-7.99230	56.55398	-722.54553	12.56330	84.71474	-729.66101	70.35251	167.73840	-706.67749	88.95411	243.87573	-682.51428	22.95153	266.58868	-684.98944	-20.23257	199.05368	-693.70435	-41.15805	139.49892																																																	3826.29321	-1579.06470	-85.52978	-987.49152	470.41669	1070.26025	-1035.61707	471.58371	810.97198	-1273.63477	240.97339	507.92297	
